<svg class="logo-elem" fill="none" xmlns="http://www.w3.org/2000/svg" viewBox="-1 -1 306.93 289">
  <path
    d="M261.168 137.571L261.42 99.7585L131.121 0L130.52 0.784424L130.299 0.494873L55.9258 57.4365L55.7656 38.978L27.7754 39.2192L28.1152 78.7273L0 100.253L0.251953 138.065L131.031 37.9382L261.168 137.571Z"
    stroke="#EF4D62" stroke-width="2" fill="#EF4D62" class="logo-elem-1"></path>
  <path
    d="M100.775 186V82.5674L126.775 62V287H100.775V211H51.7754V287H25.7754V161.5H1.59375L25.7754 142.395V142.293L51.7754 122V186H100.775Z"
    stroke="black" stroke-width="2" fill="black" class="logo-elem-2"></path>
  <path fill-rule="evenodd" clip-rule="evenodd"
    d="M177.074 128H160V186H210V153.392L200.816 146.241V148H188.571V138H190.144L188.571 136.811L178.367 129.005L177.074 128ZM178.367 185H166.122V181H178.367V185ZM200.816 185H188.571V181H200.816V185ZM178.367 138H166.122V148H178.367V138ZM178.367 159H166.122V170H178.367V159ZM188.571 170H200.816V159H188.571V170Z"
    stroke="#E2E3E3" stroke-width="2" fill="#E2E3E3" class="logo-elem-3"></path>
  <path fill-rule="evenodd" clip-rule="evenodd"
    d="M210 211H160V285H210V211ZM200.816 266V276H188.571V266H200.816ZM200.816 245V255H188.571V245H200.816ZM200.816 223V234H188.571V223H200.816ZM178.367 223H166.122V234H178.367V223ZM178.367 245H166.122V255H178.367V245ZM178.367 266H166.122V276H178.367V266Z"
    stroke="#E2E3E3" stroke-width="2" fill="#E2E3E3" class="logo-elem-4"></path>
  <path fill-rule="evenodd" clip-rule="evenodd"
    d="M160.775 287V211H209.775V287.001H235.775V161H260.855L135.02 62.114L134.98 62.1628L134.775 62V287H160.775ZM160.775 114.882V186H209.775V153.387L160.775 114.882Z"
    stroke="#A9A9A9" stroke-width="2" fill="#A9A9A9" class="logo-elem-5"></path>
  <rect x="275.775" y="233" width="1" height="4" stroke="#D9D9D9" stroke-width="2" fill="#D9D9D9" class="logo-elem-6">
  </rect>
  <path
    d="M251.646 226.361C251.072 234.23 250.924 241.607 250.775 248.984C251.27 249.434 251.762 249.884 252.615 250.78C258.494 253.031 263.998 254.874 269.531 256.628C276.668 258.891 276.916 259.471 275.912 266.823C275.393 270.637 273.912 272.325 269.836 272.153C266.023 271.991 263.154 271.355 263.201 266.808C263.232 263.758 261.66 262.711 258.816 262.831C257.174 262.901 255.527 262.885 253.777 262.868H253.76L251.775 262.853V273.1C251.77 273.147 251.771 273.195 251.775 273.239V273.391L251.807 273.428L251.824 273.514C251.859 273.727 251.922 273.929 251.979 274.122L251.988 274.149L252.016 274.245C252.062 274.408 252.115 274.59 252.207 274.756C252.352 275.022 252.527 275.285 252.734 275.514L252.785 275.568C253.996 279.427 256.256 281.842 259.383 282.6C264.58 283.859 269.945 284.031 275.234 283.996C280.852 283.958 285.32 280.882 287.311 273.003L287.531 272.225L287.551 271.967C287.631 271.595 287.705 271.212 287.775 270.819L287.658 270.522C288.076 264.609 288.258 258.768 288.074 252.938C288.031 251.533 286.146 249.539 284.662 248.947C281.178 247.559 277.582 246.452 273.986 245.344L272.086 244.758C271.393 244.542 270.701 244.326 270.012 244.105C262.652 241.75 262.656 241.715 263.15 234.583L263.184 234.111C263.453 230.206 265.887 229.868 268.664 230.13C269.213 230.181 269.82 230.168 270.441 230.154C272.854 230.101 275.443 230.044 275.365 233.79C275.27 238.406 277.295 239.622 281.402 239.133C282.596 238.991 283.809 239.027 285.078 239.063C285.67 239.081 286.275 239.098 286.896 239.098C287.01 238.056 287.146 237.022 287.285 235.994L287.291 235.955C287.592 233.697 287.889 231.466 287.904 229.232C287.943 223.827 284.609 219.643 279.064 218.863C273.838 218.127 268.4 217.662 263.209 218.305C260.832 218.599 258.582 219.925 256.332 221.252C255.324 221.846 254.318 222.44 253.299 222.941C253.295 222.948 253.305 222.958 253.301 222.965C253.27 222.959 253.24 222.963 253.213 222.973C253.172 222.989 253.137 223.021 253.117 223.067L253.107 223.078L253.074 223.128C253.023 223.137 252.98 223.168 252.955 223.216L252.826 223.458L252.785 223.53C252.684 223.577 252.58 223.647 252.496 223.772C252.33 224.016 252.221 224.31 252.127 224.564L252.096 224.647L251.986 224.953L251.918 225.15L251.783 225.581C251.754 225.679 251.721 225.79 251.693 225.902C251.66 226.049 251.635 226.211 251.646 226.361Z"
    stroke="#A9A9A9" stroke-width="2" fill="#A9A9A9" class="logo-elem-7"></path>
  <path
    d="M293.379 189.609C292.965 189.363 292.49 189.113 292.031 188.872C291.039 188.352 290.119 187.823 290.037 187.186C289.58 183.646 289.861 180.01 289.861 176.002L292.111 176.003C293.343 176.005 294.302 176.006 295.263 176C303.697 175.953 306.675 179.615 303.949 187.825C302.572 191.971 300.056 195.89 297.357 199.369C296.289 200.748 293.324 200.657 290.15 201.53L290.156 201.515C291.685 197.114 292.791 193.936 294.191 190.474C294.099 190.354 294.006 190.232 293.91 190.11C293.906 190.106 293.896 190.11 293.892 190.106L293.379 189.609Z"
    stroke="#A9A9A9" stroke-width="2" fill="#A9A9A9" class="logo-elem-8"></path>

</svg>